<svg width="15" height="15" viewBox="0 0 15 16" fill="none" xmlns="http://www.w3.org/2000/svg">
<path id="ArrowRight" d="M14.7753 7.49017L7.07584 0.582163C7.01673 0.529494 6.94133 0.5 6.86185 0.5H5.05824C4.90743 0.5 4.83814 0.69382 4.95227 0.794944L12.0892 7.19944H0.163038C0.073367 7.19944 0 7.27528 0 7.36798V8.63202C0 8.72472 0.073367 8.80056 0.163038 8.80056H12.0872L4.95023 15.2051C4.83611 15.3083 4.9054 15.5 5.05621 15.5H6.92095C6.95967 15.5 6.99839 15.4853 7.02692 15.4579L14.7753 8.50983C14.8458 8.44641 14.9024 8.36808 14.9412 8.28013C14.9799 8.19218 15 8.09665 15 8C15 7.90335 14.9799 7.80782 14.9412 7.71987C14.9024 7.63192 14.8458 7.55359 14.7753 7.49017Z" fill="black" fill-opacity="0.85"/>
</svg>
