<svg width="15" height="15" viewBox="0 0 15 16" fill="none" xmlns="http://www.w3.org/2000/svg">
<path id="Retweet" d="M0.156209 8.78125H1.39807C1.48399 8.78125 1.55428 8.71094 1.55428 8.625V3.63868H11.8758V5.05664C11.8758 5.09375 11.8875 5.12891 11.911 5.15821C11.9241 5.17508 11.9405 5.18918 11.9591 5.19969C11.9777 5.2102 11.9983 5.21692 12.0195 5.21947C12.0407 5.22201 12.0623 5.22032 12.0828 5.2145C12.1034 5.20868 12.1227 5.19884 12.1394 5.18555L14.9375 2.98829C15.0215 2.89063 15.0078 2.78711 14.9375 2.73047L12.1394 0.535162C12.1106 0.512123 12.0748 0.499708 12.0379 0.500005C11.9481 0.500005 11.8739 0.574224 11.8739 0.664068V2.08204H1.40003C0.628742 2.08204 0 2.71094 0 3.48438V8.625C0 8.71094 0.0702942 8.78125 0.156209 8.78125ZM14.8399 7.21875H13.598C13.5121 7.21875 13.4418 7.28907 13.4418 7.375V12.3613H3.12028V10.9434C3.12028 10.9063 3.10857 10.8711 3.08513 10.8418C3.07198 10.8249 3.05562 10.8108 3.03699 10.8003C3.01836 10.7898 2.99784 10.7831 2.9766 10.7805C2.95536 10.778 2.93383 10.7797 2.91325 10.7855C2.89267 10.7913 2.87344 10.8012 2.85668 10.8145L0.0585785 13.0117C-0.025384 13.1094 -0.0117157 13.2129 0.0585785 13.2695L2.85668 15.4648C2.88597 15.4883 2.92111 15.5 2.95821 15.5C3.04803 15.5 3.12223 15.4258 3.12223 15.3359V13.918H13.6C14.3713 13.918 15 13.2891 15 12.5156V7.375C14.9961 7.28907 14.9258 7.21875 14.8399 7.21875Z" fill="black" fill-opacity="0.85"/>
</svg>
